<?xml version="1.0" encoding="utf-8"?><!-- Uploaded to: SVG Repo, www.svgrepo.com, Generator: SVG Repo Mixer Tools -->
<svg width="800px" height="800px" viewBox="0 0 24 24" fill="none" xmlns="http://www.w3.org/2000/svg">
<path d="M11.4375 15.5001C11.4375 15.9143 11.7733 16.2501 12.1875 16.2501C12.6017 16.2501 12.9375 15.9143 12.9375 15.5001H11.4375ZM12.9375 13.7501C12.9375 13.3359 12.6017 13.0001 12.1875 13.0001C11.7733 13.0001 11.4375 13.3359 11.4375 13.7501H12.9375ZM8.3097 9.13913C8.3097 9.55334 8.64548 9.88913 9.0597 9.88913C9.47391 9.88913 9.8097 9.55334 9.8097 9.13913H8.3097ZM9.0597 8.15013L8.3097 8.14326V8.15013H9.0597ZM12.1875 5.00013L12.1807 5.75022L12.1943 5.7501L12.1875 5.00013ZM15.3153 8.15013L16.0653 8.15013L16.0653 8.14326L15.3153 8.15013ZM14.5653 9.13913C14.5653 9.55334 14.9011 9.88913 15.3153 9.88913C15.7295 9.88913 16.0653 9.55334 16.0653 9.13913H14.5653ZM9.4306 9.79044C9.79031 9.58506 9.91542 9.12696 9.71003 8.76725C9.50465 8.40754 9.04655 8.28243 8.68684 8.48782L9.4306 9.79044ZM6.825 13.0001L6.075 12.9941V13.0001H6.825ZM6.825 14.5001H6.075C6.075 14.5059 6.07506 14.5117 6.0752 14.5175L6.825 14.5001ZM11.4211 19.0001V18.2501C11.4153 18.2501 11.4095 18.2502 11.4037 18.2503L11.4211 19.0001ZM12.9538 19.0001L12.9712 18.2503C12.9654 18.2502 12.9596 18.2501 12.9538 18.2501V19.0001ZM17.55 14.5001L18.2998 14.5175C18.2999 14.5117 18.3 14.5059 18.3 14.5001L17.55 14.5001ZM17.55 13.0001L18.3 13.0001L18.3 12.994L17.55 13.0001ZM15.687 8.48772C15.3272 8.28243 14.8692 8.40766 14.6639 8.76742C14.4586 9.12718 14.5838 9.58525 14.9436 9.79054L15.687 8.48772ZM8.67992 8.49182C8.32242 8.70102 8.20221 9.16043 8.41141 9.51793C8.62062 9.87543 9.08002 9.99564 9.43752 9.78644L8.67992 8.49182ZM11.4211 8.50013L11.419 9.25013H11.4211V8.50013ZM12.9538 8.50013L12.9538 9.25013L12.956 9.25012L12.9538 8.50013ZM14.9375 9.78644C15.295 9.99564 15.7544 9.87543 15.9636 9.51793C16.1728 9.16043 16.0526 8.70102 15.6951 8.49182L14.9375 9.78644ZM12.9375 15.5001V13.7501H11.4375V15.5001H12.9375ZM9.8097 9.13913V8.15013H8.3097V9.13913H9.8097ZM9.80967 8.157C9.82212 6.79765 10.901 5.73848 12.1807 5.7501L12.1943 4.25016C10.0507 4.2307 8.32944 5.99158 8.30973 8.14326L9.80967 8.157ZM12.1943 5.7501C13.474 5.73848 14.5529 6.79765 14.5653 8.157L16.0653 8.14326C16.0456 5.99158 14.3243 4.2307 12.1807 4.25016L12.1943 5.7501ZM14.5653 8.15013V9.13913H16.0653V8.15013H14.5653ZM8.68684 8.48782C7.08164 9.40434 6.09 11.1279 6.07502 12.9941L7.57497 13.0061C7.58577 11.6613 8.30029 10.4358 9.4306 9.79044L8.68684 8.48782ZM6.075 13.0001V14.5001H7.575V13.0001H6.075ZM6.0752 14.5175C6.14349 17.4574 8.5265 19.8175 11.4385 19.7499L11.4037 18.2503C9.35542 18.2979 7.62468 16.6303 7.57479 14.4827L6.0752 14.5175ZM11.4211 19.7501H12.9538V18.2501H11.4211V19.7501ZM12.9364 19.7499C15.8485 19.8175 18.2315 17.4574 18.2998 14.5175L16.8002 14.4827C16.7503 16.6303 15.0196 18.2979 12.9712 18.2503L12.9364 19.7499ZM18.3 14.5001V13.0001H16.8V14.5001H18.3ZM18.3 12.994C18.2848 11.1276 17.2927 9.40394 15.687 8.48772L14.9436 9.79054C16.0742 10.4357 16.7891 11.6612 16.8 13.0062L18.3 12.994ZM9.43752 9.78644C10.0423 9.43255 10.7254 9.24814 11.419 9.25012L11.4233 7.75013C10.4601 7.74738 9.5142 8.00361 8.67992 8.49182L9.43752 9.78644ZM11.4211 9.25013H12.9538V7.75013H11.4211V9.25013ZM12.956 9.25012C13.6496 9.24814 14.3327 9.43255 14.9375 9.78644L15.6951 8.49182C14.8608 8.00361 13.9149 7.74738 12.9517 7.75013L12.956 9.25012Z" fill="#000000"/>
</svg>